<svg width="518" height="518" viewBox="0 0 518 518" fill="none" xmlns="http://www.w3.org/2000/svg">
<mask id="path-1-outside-1_29_2" maskUnits="userSpaceOnUse" x="0" y="0" width="518" height="518" fill="black">
<rect fill="white" width="518" height="518"/>
<path fill-rule="evenodd" clip-rule="evenodd" d="M163.438 152.344C160.265 150.228 156.04 150.647 153.343 153.343C150.647 156.04 150.228 160.265 152.344 163.438L195.163 227.667L8.00772 251.062C4.00429 251.562 1 254.965 1 259C1 263.035 4.00429 266.438 8.00772 266.938L195.163 290.333L152.344 354.562C150.228 357.735 150.647 361.96 153.343 364.657C156.04 367.353 160.265 367.772 163.438 365.656L227.667 322.837L251.062 509.992C251.562 513.996 254.965 517 259 517C263.035 517 266.438 513.996 266.938 509.992L290.333 322.837L354.562 365.656C357.735 367.772 361.96 367.353 364.657 364.657C367.353 361.96 367.772 357.735 365.656 354.562L322.837 290.333L509.992 266.938C513.996 266.438 517 263.035 517 259C517 254.965 513.996 251.562 509.992 251.062L322.837 227.667L365.656 163.438C367.772 160.265 367.353 156.04 364.657 153.343C361.96 150.647 357.735 150.228 354.562 152.344L290.333 195.163L266.938 8.00772C266.438 4.00429 263.035 1 259 1C254.965 1 251.562 4.00429 251.062 8.00772L227.667 195.163L163.438 152.344ZM291 259C291 276.673 276.673 291 259 291C241.327 291 227 276.673 227 259C227 241.327 241.327 227 259 227C276.673 227 291 241.327 291 259Z"/>
</mask>
<path fill-rule="evenodd" clip-rule="evenodd" d="M163.438 152.344C160.265 150.228 156.04 150.647 153.343 153.343C150.647 156.04 150.228 160.265 152.344 163.438L195.163 227.667L8.00772 251.062C4.00429 251.562 1 254.965 1 259C1 263.035 4.00429 266.438 8.00772 266.938L195.163 290.333L152.344 354.562C150.228 357.735 150.647 361.96 153.343 364.657C156.04 367.353 160.265 367.772 163.438 365.656L227.667 322.837L251.062 509.992C251.562 513.996 254.965 517 259 517C263.035 517 266.438 513.996 266.938 509.992L290.333 322.837L354.562 365.656C357.735 367.772 361.96 367.353 364.657 364.657C367.353 361.96 367.772 357.735 365.656 354.562L322.837 290.333L509.992 266.938C513.996 266.438 517 263.035 517 259C517 254.965 513.996 251.562 509.992 251.062L322.837 227.667L365.656 163.438C367.772 160.265 367.353 156.04 364.657 153.343C361.96 150.647 357.735 150.228 354.562 152.344L290.333 195.163L266.938 8.00772C266.438 4.00429 263.035 1 259 1C254.965 1 251.562 4.00429 251.062 8.00772L227.667 195.163L163.438 152.344ZM291 259C291 276.673 276.673 291 259 291C241.327 291 227 276.673 227 259C227 241.327 241.327 227 259 227C276.673 227 291 241.327 291 259Z" fill="#06B6D4"/>
<path d="M153.343 153.343L152.636 152.636L152.636 152.636L153.343 153.343ZM163.438 152.344L162.883 153.176L162.883 153.176L163.438 152.344ZM152.344 163.438L153.176 162.883L153.176 162.883L152.344 163.438ZM195.163 227.667L195.287 228.66C195.631 228.617 195.928 228.399 196.073 228.083C196.217 227.768 196.188 227.401 195.995 227.113L195.163 227.667ZM8.00772 251.062L8.13176 252.054L8.13176 252.054L8.00772 251.062ZM8.00772 266.938L8.13176 265.946L8.13176 265.946L8.00772 266.938ZM195.163 290.333L195.995 290.887C196.188 290.599 196.217 290.232 196.073 289.917C195.928 289.601 195.631 289.383 195.287 289.34L195.163 290.333ZM152.344 354.562L153.176 355.117L153.176 355.117L152.344 354.562ZM153.343 364.657L152.636 365.364L152.636 365.364L153.343 364.657ZM163.438 365.656L163.992 366.488L163.992 366.488L163.438 365.656ZM227.667 322.837L228.66 322.713C228.617 322.369 228.399 322.072 228.083 321.927C227.768 321.783 227.401 321.812 227.113 322.005L227.667 322.837ZM251.062 509.992L252.054 509.868L252.054 509.868L251.062 509.992ZM266.938 509.992L265.946 509.868L265.946 509.868L266.938 509.992ZM290.333 322.837L290.887 322.005C290.599 321.812 290.232 321.783 289.917 321.927C289.601 322.072 289.383 322.369 289.34 322.713L290.333 322.837ZM354.562 365.656L355.117 364.824L355.117 364.824L354.562 365.656ZM364.657 364.657L365.364 365.364L365.364 365.364L364.657 364.657ZM365.656 354.562L364.824 355.117L364.824 355.117L365.656 354.562ZM322.837 290.333L322.713 289.34C322.369 289.383 322.072 289.601 321.927 289.917C321.783 290.232 321.812 290.599 322.005 290.887L322.837 290.333ZM509.992 266.938L509.868 265.946L509.868 265.946L509.992 266.938ZM509.992 251.062L509.868 252.054L509.868 252.054L509.992 251.062ZM322.837 227.667L322.005 227.113C321.812 227.401 321.783 227.768 321.927 228.083C322.072 228.399 322.369 228.617 322.713 228.66L322.837 227.667ZM365.656 163.438L366.488 163.992L366.488 163.992L365.656 163.438ZM364.657 153.343L365.364 152.636L365.364 152.636L364.657 153.343ZM354.562 152.344L355.117 153.176L355.117 153.176L354.562 152.344ZM290.333 195.163L289.34 195.287C289.383 195.631 289.601 195.928 289.917 196.073C290.232 196.217 290.599 196.188 290.887 195.995L290.333 195.163ZM266.938 8.00772L265.946 8.13176L265.946 8.13176L266.938 8.00772ZM251.062 8.00772L252.054 8.13176L252.054 8.13176L251.062 8.00772ZM227.667 195.163L227.113 195.995C227.401 196.188 227.768 196.217 228.083 196.073C228.399 195.928 228.617 195.631 228.66 195.287L227.667 195.163ZM154.05 154.05C156.41 151.691 160.107 151.325 162.883 153.176L163.992 151.512C160.423 149.132 155.67 149.602 152.636 152.636L154.05 154.05ZM153.176 162.883C151.325 160.107 151.691 156.41 154.05 154.05L152.636 152.636C149.602 155.67 149.132 160.423 151.512 163.992L153.176 162.883ZM195.995 227.113L153.176 162.883L151.512 163.992L194.331 228.222L195.995 227.113ZM8.13176 252.054L195.287 228.66L195.039 226.675L7.88369 250.07L8.13176 252.054ZM2 259C2 255.47 4.62875 252.492 8.13176 252.054L7.88369 250.07C3.37983 250.632 0 254.461 0 259H2ZM8.13176 265.946C4.62876 265.508 2 262.53 2 259H0C0 263.539 3.37983 267.368 7.88369 267.931L8.13176 265.946ZM195.287 289.34L8.13176 265.946L7.88369 267.931L195.039 291.325L195.287 289.34ZM153.176 355.117L195.995 290.887L194.331 289.778L151.512 354.008L153.176 355.117ZM154.05 363.95C151.691 361.59 151.325 357.893 153.176 355.117L151.512 354.008C149.132 357.577 149.602 362.33 152.636 365.364L154.05 363.95ZM162.883 364.824C160.107 366.675 156.41 366.309 154.05 363.95L152.636 365.364C155.67 368.398 160.423 368.868 163.992 366.488L162.883 364.824ZM227.113 322.005L162.883 364.824L163.992 366.488L228.222 323.669L227.113 322.005ZM252.054 509.868L228.66 322.713L226.675 322.961L250.07 510.116L252.054 509.868ZM259 516C255.47 516 252.492 513.371 252.054 509.868L250.07 510.116C250.632 514.62 254.461 518 259 518V516ZM265.946 509.868C265.508 513.371 262.53 516 259 516V518C263.539 518 267.368 514.62 267.931 510.116L265.946 509.868ZM289.34 322.713L265.946 509.868L267.931 510.116L291.325 322.961L289.34 322.713ZM355.117 364.824L290.887 322.005L289.778 323.669L354.008 366.488L355.117 364.824ZM363.95 363.95C361.59 366.309 357.893 366.675 355.117 364.824L354.008 366.488C357.577 368.868 362.33 368.398 365.364 365.364L363.95 363.95ZM364.824 355.117C366.675 357.893 366.309 361.59 363.95 363.95L365.364 365.364C368.398 362.33 368.868 357.577 366.488 354.008L364.824 355.117ZM322.005 290.887L364.824 355.117L366.488 354.008L323.669 289.778L322.005 290.887ZM509.868 265.946L322.713 289.34L322.961 291.325L510.116 267.931L509.868 265.946ZM516 259C516 262.53 513.371 265.508 509.868 265.946L510.116 267.931C514.62 267.368 518 263.539 518 259H516ZM509.868 252.054C513.371 252.492 516 255.47 516 259H518C518 254.461 514.62 250.632 510.116 250.07L509.868 252.054ZM322.713 228.66L509.868 252.054L510.116 250.07L322.961 226.675L322.713 228.66ZM364.824 162.883L322.005 227.113L323.669 228.222L366.488 163.992L364.824 162.883ZM363.95 154.05C366.309 156.41 366.675 160.107 364.824 162.883L366.488 163.992C368.868 160.423 368.398 155.67 365.364 152.636L363.95 154.05ZM355.117 153.176C357.893 151.325 361.59 151.691 363.95 154.05L365.364 152.636C362.33 149.602 357.577 149.132 354.008 151.512L355.117 153.176ZM290.887 195.995L355.117 153.176L354.008 151.512L289.778 194.331L290.887 195.995ZM265.946 8.13176L289.34 195.287L291.325 195.039L267.931 7.88369L265.946 8.13176ZM259 2C262.53 2 265.508 4.62876 265.946 8.13176L267.931 7.88369C267.368 3.37983 263.539 0 259 0V2ZM252.054 8.13176C252.492 4.62875 255.47 2 259 2V0C254.461 0 250.632 3.37983 250.07 7.88369L252.054 8.13176ZM228.66 195.287L252.054 8.13176L250.07 7.88369L226.675 195.039L228.66 195.287ZM162.883 153.176L227.113 195.995L228.222 194.331L163.992 151.512L162.883 153.176ZM259 292C277.225 292 292 277.225 292 259H290C290 276.121 276.121 290 259 290V292ZM226 259C226 277.225 240.775 292 259 292V290C241.879 290 228 276.121 228 259H226ZM259 226C240.775 226 226 240.775 226 259H228C228 241.879 241.879 228 259 228V226ZM292 259C292 240.775 277.225 226 259 226V228C276.121 228 290 241.879 290 259H292Z" fill="#06B6D4" mask="url(#path-1-outside-1_29_2)"/>
</svg>
