<svg width="601" height="102" viewBox="0 0 601 102" fill="none" xmlns="http://www.w3.org/2000/svg">
<g filter="url(#filter0_d_29_5)">
<path d="M104.125 2H117.25L68.5 92H53.5L4.75 2H17.875L61 84.5L104.125 2ZM171.85 92V2H261.85V11.375H183.1V41.375H258.1V50.75H183.1V82.625H261.85V92H171.85ZM414.009 30.125C414.009 25.4375 413.501 21.7266 412.485 18.9922C411.47 16.2578 409.79 14.1875 407.446 12.7812C405.102 11.375 402.016 10.4766 398.188 10.0859C394.36 9.69531 389.634 9.5 384.009 9.5H353.891C348.891 9.5 344.673 9.65625 341.235 9.96875C337.837 10.2422 335.024 10.8281 332.798 11.7266C330.571 12.625 328.852 13.9141 327.641 15.5938C326.43 17.2734 325.552 19.5 325.005 22.2734C324.458 25.0469 324.145 28.4648 324.067 32.5273C323.989 36.5508 323.95 41.375 323.95 47C323.95 52.625 323.989 57.4688 324.067 61.5312C324.184 65.5547 324.516 68.9531 325.063 71.7266C325.61 74.5 326.47 76.7266 327.641 78.4062C328.852 80.0859 330.571 81.375 332.798 82.2734C335.024 83.1719 337.837 83.7773 341.235 84.0898C344.673 84.3633 348.891 84.5 353.891 84.5H384.067C388.442 84.5 392.212 84.3828 395.376 84.1484C398.54 83.9141 401.235 83.4844 403.462 82.8594C405.688 82.2344 407.485 81.375 408.852 80.2812C410.22 79.1875 411.274 77.8203 412.016 76.1797C412.798 74.5 413.325 72.5078 413.598 70.2031C413.872 67.8594 414.009 65.125 414.009 62V56.375H368.891V47H425.259V62C425.259 65.75 425.024 69.1484 424.555 72.1953C424.087 75.2031 423.247 77.8984 422.036 80.2812C420.864 82.625 419.282 84.6562 417.29 86.375C415.298 88.0938 412.778 89.5195 409.731 90.6523C406.684 91.7461 403.052 92.5469 398.833 93.0547C394.614 93.6016 389.692 93.875 384.067 93.875H353.891C347.016 93.875 341.216 93.4453 336.489 92.5859C331.802 91.7656 327.934 90.5156 324.888 88.8359C321.841 87.1172 319.477 84.9688 317.798 82.3906C316.157 79.8125 314.946 76.7852 314.165 73.3086C313.423 69.832 312.993 65.9062 312.876 61.5312C312.759 57.1562 312.7 52.3125 312.7 47C312.7 41.6875 312.759 36.8438 312.876 32.4688C312.993 28.0938 313.423 24.168 314.165 20.6914C314.946 17.2148 316.157 14.1875 317.798 11.6094C319.477 9.03125 321.841 6.90234 324.888 5.22266C327.934 3.50391 331.802 2.23438 336.489 1.41406C341.216 0.554687 347.016 0.125 353.891 0.125H384.009C389.634 0.125 394.555 0.398438 398.774 0.945312C402.993 1.45313 406.626 2.25391 409.673 3.34766C412.72 4.40234 415.239 5.75 417.231 7.39062C419.263 9.03125 420.864 10.9648 422.036 13.1914C423.247 15.418 424.087 17.9375 424.555 20.75C425.024 23.5625 425.259 26.6875 425.259 30.125H414.009ZM571.792 71.375H500.542L489.292 92H476.167L528.667 2H543.667L596.167 92H583.042L571.792 71.375ZM566.167 62L536.167 9.5L506.167 62H566.167Z" fill="#06B6D4"/>
</g>
<defs>
<filter id="filter0_d_29_5" x="0.75" y="0.125" width="599.417" height="101.75" filterUnits="userSpaceOnUse" color-interpolation-filters="sRGB">
<feFlood flood-opacity="0" result="BackgroundImageFix"/>
<feColorMatrix in="SourceAlpha" type="matrix" values="0 0 0 0 0 0 0 0 0 0 0 0 0 0 0 0 0 0 127 0" result="hardAlpha"/>
<feOffset dy="4"/>
<feGaussianBlur stdDeviation="2"/>
<feComposite in2="hardAlpha" operator="out"/>
<feColorMatrix type="matrix" values="0 0 0 0 0 0 0 0 0 0 0 0 0 0 0 0 0 0 0.25 0"/>
<feBlend mode="normal" in2="BackgroundImageFix" result="effect1_dropShadow_29_5"/>
<feBlend mode="normal" in="SourceGraphic" in2="effect1_dropShadow_29_5" result="shape"/>
</filter>
</defs>
</svg>
