<svg width="500" height="500" viewBox="0 0 500 500" fill="none" xmlns="http://www.w3.org/2000/svg">
<path fill-rule="evenodd" clip-rule="evenodd" d="M161.105 150.785C158.153 148.817 154.223 149.206 151.715 151.715C149.206 154.223 148.817 158.153 150.785 161.105L190.617 220.853L16.5188 242.616C12.7947 243.081 10 246.247 10 250C10 253.753 12.7947 256.919 16.5188 257.384L190.617 279.147L150.785 338.895C148.817 341.847 149.206 345.777 151.715 348.285C154.223 350.794 158.153 351.183 161.105 349.215L220.853 309.383L242.616 483.481C243.081 487.205 246.247 490 250 490C253.753 490 256.919 487.205 257.384 483.481L279.147 309.383L338.895 349.215C341.847 351.183 345.777 350.794 348.285 348.285C350.794 345.777 351.183 341.847 349.215 338.895L309.383 279.147L483.481 257.384C487.205 256.919 490 253.753 490 250C490 246.247 487.205 243.081 483.481 242.616L309.383 220.853L349.215 161.105C351.183 158.153 350.794 154.223 348.285 151.715C345.777 149.206 341.847 148.817 338.895 150.785L279.147 190.617L257.384 16.5188C256.919 12.7947 253.753 10 250 10C246.247 10 243.081 12.7947 242.616 16.5188L220.853 190.617L161.105 150.785ZM279.767 250C279.767 266.44 266.44 279.767 250 279.767C233.56 279.767 220.233 266.44 220.233 250C220.233 233.56 233.56 220.233 250 220.233C266.44 220.233 279.767 233.56 279.767 250Z" fill="#06b6d4"/>
</svg>
