<svg width="1000" height="1032" viewBox="0 0 1000 1032" fill="none" xmlns="http://www.w3.org/2000/svg">
<path d="M806.39 203.123H687.069V130.102C687.069 58.365 630.246 0 558.51 0H444.574C372.837 0 312.934 58.365 312.934 130.102V203.123H196.689C177.557 203.123 160.508 218.634 160.508 237.765L0 996.705C0 1015.84 17.0469 1031.35 36.1786 1031.35H966.903C986.035 1031.35 1000 1015.84 1000 996.705L839.494 237.765C839.494 218.634 825.522 203.123 806.39 203.123ZM382.218 130.102C382.218 96.5637 411.036 69.2842 444.574 69.2842H558.51C592.043 69.2842 617.784 96.5637 617.784 130.102V203.123H382.218V130.102Z" fill="#06B6D4"/>
<mask id="path-2-outside-1_47_6" maskUnits="userSpaceOnUse" x="199" y="307" width="602" height="602" fill="black">
<rect fill="white" x="199" y="307" width="602" height="602"/>
<path fill-rule="evenodd" clip-rule="evenodd" d="M388.881 483.981C385.191 481.521 380.279 482.008 377.143 485.143C374.008 488.279 373.521 493.191 375.981 496.881L425.771 571.567L208.149 598.77C203.493 599.351 200 603.309 200 608C200 612.691 203.493 616.649 208.149 617.23L425.771 644.433L375.981 719.119C373.521 722.809 374.008 727.721 377.143 730.857C380.279 733.992 385.191 734.479 388.881 732.019L463.567 682.229L490.77 899.851C491.351 904.507 495.309 908 500 908C504.691 908 508.649 904.507 509.23 899.851L536.433 682.229L611.119 732.019C614.809 734.479 619.721 733.992 622.857 730.857C625.992 727.721 626.479 722.809 624.019 719.119L574.229 644.433L791.851 617.23C796.507 616.649 800 612.691 800 608C800 603.309 796.507 599.351 791.851 598.77L574.229 571.567L624.019 496.881C626.479 493.191 625.992 488.279 622.857 485.143C619.721 482.008 614.809 481.521 611.119 483.981L536.433 533.771L509.23 316.149C508.649 311.493 504.691 308 500 308C495.309 308 491.351 311.493 490.77 316.149L463.567 533.771L388.881 483.981Z"/>
</mask>
<path fill-rule="evenodd" clip-rule="evenodd" d="M388.881 483.981C385.191 481.521 380.279 482.008 377.143 485.143C374.008 488.279 373.521 493.191 375.981 496.881L425.771 571.567L208.149 598.77C203.493 599.351 200 603.309 200 608C200 612.691 203.493 616.649 208.149 617.23L425.771 644.433L375.981 719.119C373.521 722.809 374.008 727.721 377.143 730.857C380.279 733.992 385.191 734.479 388.881 732.019L463.567 682.229L490.77 899.851C491.351 904.507 495.309 908 500 908C504.691 908 508.649 904.507 509.23 899.851L536.433 682.229L611.119 732.019C614.809 734.479 619.721 733.992 622.857 730.857C625.992 727.721 626.479 722.809 624.019 719.119L574.229 644.433L791.851 617.23C796.507 616.649 800 612.691 800 608C800 603.309 796.507 599.351 791.851 598.77L574.229 571.567L624.019 496.881C626.479 493.191 625.992 488.279 622.857 485.143C619.721 482.008 614.809 481.521 611.119 483.981L536.433 533.771L509.23 316.149C508.649 311.493 504.691 308 500 308C495.309 308 491.351 311.493 490.77 316.149L463.567 533.771L388.881 483.981Z" fill="white"/>
<path d="M377.143 485.143L376.436 484.436L376.436 484.436L377.143 485.143ZM388.881 483.981L388.326 484.813L388.326 484.813L388.881 483.981ZM375.981 496.881L376.813 496.326L376.813 496.326L375.981 496.881ZM425.771 571.567L425.895 572.559C426.239 572.516 426.536 572.298 426.681 571.983C426.825 571.668 426.796 571.3 426.603 571.012L425.771 571.567ZM208.149 598.77L208.273 599.762L208.273 599.762L208.149 598.77ZM208.149 617.23L208.273 616.238L208.273 616.238L208.149 617.23ZM425.771 644.433L426.603 644.988C426.796 644.7 426.825 644.332 426.681 644.017C426.536 643.702 426.239 643.484 425.895 643.441L425.771 644.433ZM375.981 719.119L376.813 719.674L376.813 719.674L375.981 719.119ZM377.143 730.857L376.436 731.564L376.436 731.564L377.143 730.857ZM388.881 732.019L388.326 731.187L388.326 731.187L388.881 732.019ZM463.567 682.229L464.559 682.105C464.516 681.761 464.298 681.464 463.983 681.319C463.668 681.175 463.3 681.204 463.012 681.397L463.567 682.229ZM490.77 899.851L491.762 899.727L491.762 899.727L490.77 899.851ZM509.23 899.851L508.238 899.727L508.238 899.727L509.23 899.851ZM536.433 682.229L536.988 681.397C536.7 681.204 536.332 681.175 536.017 681.319C535.702 681.464 535.484 681.761 535.441 682.105L536.433 682.229ZM611.119 732.019L611.674 731.187L611.674 731.187L611.119 732.019ZM622.857 730.857L623.564 731.564L623.564 731.564L622.857 730.857ZM624.019 719.119L623.187 719.674L623.187 719.674L624.019 719.119ZM574.229 644.433L574.105 643.441C573.761 643.484 573.464 643.702 573.319 644.017C573.175 644.332 573.204 644.7 573.397 644.988L574.229 644.433ZM791.851 617.23L791.727 616.238L791.727 616.238L791.851 617.23ZM791.851 598.77L791.727 599.762L791.727 599.762L791.851 598.77ZM574.229 571.567L573.397 571.012C573.204 571.3 573.175 571.668 573.319 571.983C573.464 572.298 573.761 572.516 574.105 572.559L574.229 571.567ZM624.019 496.881L623.187 496.326L623.187 496.326L624.019 496.881ZM622.857 485.143L623.564 484.436L623.564 484.436L622.857 485.143ZM611.119 483.981L611.674 484.813L611.674 484.813L611.119 483.981ZM536.433 533.771L535.441 533.895C535.484 534.239 535.702 534.536 536.017 534.681C536.332 534.825 536.7 534.796 536.988 534.603L536.433 533.771ZM509.23 316.149L508.238 316.273L508.238 316.273L509.23 316.149ZM490.77 316.149L491.762 316.273L491.762 316.273L490.77 316.149ZM463.567 533.771L463.012 534.603C463.3 534.796 463.668 534.825 463.983 534.681C464.298 534.536 464.516 534.239 464.559 533.895L463.567 533.771ZM377.85 485.85C380.649 483.052 385.033 482.618 388.326 484.813L389.436 483.149C385.349 480.425 379.909 480.964 376.436 484.436L377.85 485.85ZM376.813 496.326C374.618 493.033 375.052 488.649 377.85 485.85L376.436 484.436C372.964 487.909 372.425 493.349 375.149 497.436L376.813 496.326ZM426.603 571.012L376.813 496.326L375.149 497.436L424.939 572.121L426.603 571.012ZM208.273 599.762L425.895 572.559L425.647 570.574L208.024 597.777L208.273 599.762ZM201 608C201 603.813 204.118 600.281 208.273 599.762L208.024 597.777C202.869 598.422 199 602.804 199 608H201ZM208.273 616.238C204.118 615.719 201 612.187 201 608H199C199 613.196 202.869 617.578 208.024 618.223L208.273 616.238ZM425.895 643.441L208.273 616.238L208.024 618.223L425.647 645.426L425.895 643.441ZM376.813 719.674L426.603 644.988L424.939 643.879L375.149 718.564L376.813 719.674ZM377.85 730.15C375.052 727.351 374.618 722.967 376.813 719.674L375.149 718.564C372.425 722.651 372.964 728.091 376.436 731.564L377.85 730.15ZM388.326 731.187C385.033 733.382 380.649 732.948 377.85 730.15L376.436 731.564C379.909 735.036 385.349 735.575 389.436 732.851L388.326 731.187ZM463.012 681.397L388.326 731.187L389.436 732.851L464.121 683.061L463.012 681.397ZM491.762 899.727L464.559 682.105L462.574 682.353L489.777 899.975L491.762 899.727ZM500 907C495.813 907 492.281 903.882 491.762 899.727L489.777 899.975C490.422 905.131 494.804 909 500 909V907ZM508.238 899.727C507.719 903.882 504.187 907 500 907V909C505.196 909 509.578 905.131 510.223 899.975L508.238 899.727ZM535.441 682.105L508.238 899.727L510.223 899.975L537.426 682.353L535.441 682.105ZM611.674 731.187L536.988 681.397L535.879 683.061L610.564 732.851L611.674 731.187ZM622.15 730.15C619.351 732.948 614.967 733.382 611.674 731.187L610.564 732.851C614.651 735.575 620.091 735.036 623.564 731.564L622.15 730.15ZM623.187 719.674C625.382 722.967 624.948 727.351 622.15 730.15L623.564 731.564C627.036 728.091 627.575 722.651 624.851 718.564L623.187 719.674ZM573.397 644.988L623.187 719.674L624.851 718.564L575.061 643.879L573.397 644.988ZM791.727 616.238L574.105 643.441L574.353 645.426L791.975 618.223L791.727 616.238ZM799 608C799 612.187 795.882 615.719 791.727 616.238L791.975 618.223C797.131 617.578 801 613.196 801 608H799ZM791.727 599.762C795.882 600.281 799 603.813 799 608H801C801 602.804 797.131 598.422 791.975 597.777L791.727 599.762ZM574.105 572.559L791.727 599.762L791.975 597.777L574.353 570.574L574.105 572.559ZM623.187 496.326L573.397 571.012L575.061 572.121L624.851 497.436L623.187 496.326ZM622.15 485.85C624.948 488.649 625.382 493.033 623.187 496.326L624.851 497.436C627.575 493.349 627.036 487.909 623.564 484.436L622.15 485.85ZM611.674 484.813C614.967 482.618 619.351 483.052 622.15 485.85L623.564 484.436C620.091 480.964 614.651 480.425 610.564 483.149L611.674 484.813ZM536.988 534.603L611.674 484.813L610.564 483.149L535.879 532.939L536.988 534.603ZM508.238 316.273L535.441 533.895L537.426 533.647L510.223 316.024L508.238 316.273ZM500 309C504.187 309 507.719 312.118 508.238 316.273L510.223 316.024C509.578 310.869 505.196 307 500 307V309ZM491.762 316.273C492.281 312.118 495.813 309 500 309V307C494.804 307 490.422 310.869 489.777 316.024L491.762 316.273ZM464.559 533.895L491.762 316.273L489.777 316.024L462.574 533.647L464.559 533.895ZM388.326 484.813L463.012 534.603L464.121 532.939L389.436 483.149L388.326 484.813Z" fill="white" mask="url(#path-2-outside-1_47_6)"/>
</svg>
